<svg xmlns="http://www.w3.org/2000/svg" viewBox="0 0 600 750" width="600" height="750">
  <defs>
    <linearGradient id="bgHero" x1="0" y1="0" x2="1" y2="1">
      <stop offset="0%" stop-color="#2d2822"/><stop offset="25%" stop-color="#231f1a"/>
      <stop offset="50%" stop-color="#1a1815"/><stop offset="75%" stop-color="#141210"/>
      <stop offset="100%" stop-color="#0d0c0a"/>
    </linearGradient>
    <linearGradient id="hlHero" x1="0.2" y1="0" x2="0.8" y2="1">
      <stop offset="0%" stop-color="rgba(201,169,97,0.12)"/>
      <stop offset="30%" stop-color="rgba(201,169,97,0.03)"/>
      <stop offset="100%" stop-color="rgba(201,169,97,0)"/>
    </linearGradient>
    <linearGradient id="goldH" x1="0" y1="0" x2="1" y2="1">
      <stop offset="0%" stop-color="#c9a961"/><stop offset="30%" stop-color="#f5e6cc"/>
      <stop offset="50%" stop-color="#c9a961"/><stop offset="70%" stop-color="#a8874a"/>
      <stop offset="100%" stop-color="#c9a961"/>
    </linearGradient>
    <linearGradient id="flapH" x1="0" y1="0" x2="0.5" y2="1">
      <stop offset="0%" stop-color="#2d2822"/><stop offset="40%" stop-color="#1f1b17"/><stop offset="100%" stop-color="#141210"/>
    </linearGradient>
    <filter id="leatherH">
      <feTurbulence type="fractalNoise" baseFrequency="0.6" numOctaves="3" result="n"/>
      <feColorMatrix type="matrix" values="1 0 0 0 0  0 1 0 0 0  0 0 1 0 0  0 0 0 0.025 0" in="n" result="c"/>
      <feBlend mode="multiply" in="SourceGraphic" in2="c"/>
    </filter>
  </defs>
  <rect width="600" height="750" fill="transparent"/>
  <!-- Ground shadow -->
  <ellipse cx="300" cy="720" rx="220" ry="18" fill="rgba(0,0,0,0.4)"/>
  <ellipse cx="300" cy="720" rx="110" ry="9" fill="rgba(201,169,97,0.06)"/>
  <!-- Gussets -->
  <path d="M130,268 L100,300 L118,590 Q112,615 128,630 L160,615 Q167,655 200,655 L145,630 Q120,615 126,580 Z" fill="rgba(0,0,0,0.3)"/>
  <path d="M470,268 L500,300 L482,590 Q488,615 472,630 L440,615 Q433,655 400,655 L455,630 Q480,615 474,580 Z" fill="rgba(0,0,0,0.3)"/>
  <!-- Main body -->
  <path d="M138,270 L462,270 L440,620 Q435,655 405,655 L195,655 Q165,655 160,620 Z" fill="url(#bgHero)" filter="url(#leatherH)"/>
  <path d="M138,270 L462,270 L440,620 Q435,655 405,655 L195,655 Q165,655 160,620 Z" fill="url(#hlHero)" opacity="0.5"/>
  <!-- Bottom gold trim -->
  <path d="M160,648 Q165,655 195,655 L405,655 Q435,655 440,648" fill="none" stroke="url(#goldH)" stroke-width="3.5" opacity="0.6"/>
  <!-- Bottom stitch -->
  <path d="M162,640 Q167,650 195,650 L405,650 Q433,650 438,640" fill="none" stroke="rgba(201,169,97,0.12)" stroke-width="0.8" stroke-dasharray="3,4"/>
  <!-- Gold studs -->
  <circle cx="170" cy="652" r="5" fill="url(#goldH)" opacity="0.5"/>
  <circle cx="430" cy="652" r="5" fill="url(#goldH)" opacity="0.5"/>
  <!-- Flap -->
  <path d="M130,255 L470,255 L450,228 Q300,185 150,228 Z" fill="url(#flapH)" filter="url(#leatherH)"/>
  <path d="M130,255 L470,255" stroke="url(#goldH)" stroke-width="3.5" opacity="0.7"/>
  <!-- Flap stitch -->
  <path d="M134,258 L466,258" fill="none" stroke="rgba(201,169,97,0.12)" stroke-width="0.8" stroke-dasharray="3,4"/>
  <!-- Clasp plate -->
  <rect x="248" y="268" width="104" height="20" rx="3" fill="url(#goldH)" opacity="0.7"/>
  <rect x="254" y="271" width="92" height="5" rx="1" fill="#f5e6cc" opacity="0.15"/>
  <rect x="248" y="286" width="104" height="6" rx="1" fill="rgba(0,0,0,0.12)"/>
  <!-- Clasp circle -->
  <circle cx="300" cy="295" r="18" fill="url(#goldH)" opacity="0.75"/>
  <circle cx="300" cy="295" r="18" fill="none" stroke="#a8874a" stroke-width="0.8"/>
  <circle cx="300" cy="295" r="8" fill="none" stroke="#f5e6cc" stroke-width="1" opacity="0.4"/>
  <circle cx="300" cy="295" r="3" fill="#f5e6cc" opacity="0.3"/>
  <ellipse cx="293" cy="289" rx="4" ry="3" fill="rgba(245,230,204,0.25)"/>
  <!-- Handle anchors -->
  <circle cx="158" cy="255" r="11" fill="url(#goldH)" opacity="0.65"/>
  <circle cx="158" cy="255" r="6" fill="none" stroke="#f5e6cc" stroke-width="0.6" opacity="0.3"/>
  <circle cx="442" cy="255" r="11" fill="url(#goldH)" opacity="0.65"/>
  <circle cx="442" cy="255" r="6" fill="none" stroke="#f5e6cc" stroke-width="0.6" opacity="0.3"/>
  <!-- Handle -->
  <path d="M158,255 C158,100 442,100 442,255" fill="none" stroke="#1a1815" stroke-width="14" stroke-linecap="round"/>
  <path d="M158,255 C158,100 442,100 442,255" fill="none" stroke="rgba(201,169,97,0.05)" stroke-width="8" stroke-linecap="round"/>
  <path d="M163,252 C163,108 437,108 437,252" fill="none" stroke="rgba(201,169,97,0.06)" stroke-width="0.8" stroke-dasharray="3,4"/>
  <!-- Side stitches -->
  <path d="M140,272 L162,618" fill="none" stroke="rgba(201,169,97,0.1)" stroke-width="0.6" stroke-dasharray="3,4"/>
  <path d="M460,272 L438,618" fill="none" stroke="rgba(201,169,97,0.1)" stroke-width="0.6" stroke-dasharray="3,4"/>
  <!-- LV monogram -->
  <text x="300" y="530" font-size="36" fill="rgba(201,169,97,0.03)" text-anchor="middle" font-family="serif" font-weight="700" letter-spacing="4">LV</text>
  <!-- Reflection -->
  <path d="M142,272 L458,272 L436,600 Q432,635 408,635 L198,635 Q178,635 172,600 Z" fill="url(#hlHero)" opacity="0.12"/>
</svg>
